<?xml version="1.0" standalone="no"?>
<!DOCTYPE svg PUBLIC "-//W3C//DTD SVG 20010904//EN"
 "http://www.w3.org/TR/2001/REC-SVG-20010904/DTD/svg10.dtd">
<svg version="1.0" xmlns="http://www.w3.org/2000/svg"
 width="32.000000pt" height="32.000000pt" viewBox="0 0 32.000000 32.000000"
 preserveAspectRatio="xMidYMid meet">

<g transform="translate(0.000000,32.000000) scale(0.100000,-0.100000)"
fill="#000000" stroke="none">
<path d="M106 244 c-24 -23 -20 -44 9 -44 21 0 25 5 25 30 0 33 -11 38 -34 14z"/>
<path d="M97 173 c-4 -3 -7 -26 -7 -50 0 -40 2 -44 23 -41 14 2 23 11 25 26 2
14 10 22 22 22 19 0 50 25 50 41 0 10 -103 13 -113 2z"/>
</g>
</svg>
